<svg xmlns="http://www.w3.org/2000/svg" xmlns:xlink="http://www.w3.org/1999/xlink" viewBox="0 0 1919.99 1007.66"><defs><style>.cls-1{fill:url(#Безымянный_градиент);}.cls-2{fill:url(#Безымянный_градиент_2);}.cls-3{fill:url(#Безымянный_градиент_4);}.cls-4{fill:url(#Безымянный_градиент_4-2);}</style><linearGradient id="Безымянный_градиент" x1="1406.36" y1="321.98" x2="1075.21" y2="60.55" gradientTransform="matrix(1.39, 0.35, 0.35, -1.39, -211.7, 634.89)" gradientUnits="userSpaceOnUse"><stop offset="0" stop-color="#fb2046"/><stop offset="1" stop-color="#fb5502"/></linearGradient><linearGradient id="Безымянный_градиент_2" x1="1418.07" y1="489.14" x2="760.75" y2="307.02" gradientTransform="matrix(1.43, 0, 0, -1.43, -157.89, 1316.94)" gradientUnits="userSpaceOnUse"><stop offset="0" stop-color="#fb2046"/><stop offset="1" stop-color="#e32581"/></linearGradient><linearGradient id="Безымянный_градиент_4" x1="1724.13" y1="1498.77" x2="754.87" y2="286.14" gradientTransform="matrix(1.43, 0, 0, -1.43, -157.89, 1316.94)" gradientUnits="userSpaceOnUse"><stop offset="0" stop-color="#5e2495"/><stop offset="1" stop-color="#e32581"/></linearGradient><linearGradient id="Безымянный_градиент_4-2" x1="124.81" y1="498.33" x2="2402.52" y2="1170.31" xlink:href="#Безымянный_градиент_4"/></defs><title>Ресурс 1</title><g id="Слой_2" data-name="Слой 2"><g id="appreciated_beam" data-name="appreciated beam"><path class="cls-1" d="M1285.3,915.27l535.53-314.4a65.85,65.85,0,0,1,90.55,24.54h0a66,66,0,0,1-28.84,92L1331.65,1002.8a49.52,49.52,0,0,1-64-19.37h0A49.7,49.7,0,0,1,1285.3,915.27Z"/><path class="cls-2" d="M978.22,742.93l861.27-163.59a67.84,67.84,0,0,1,77.2,45.78h0a67.74,67.74,0,0,1-44.48,85.52l-837.45,259.3c-65.72,20.38-152-20.09-166.46-87.39h0C854.52,818.26,913.64,755.12,978.22,742.93Z"/><path class="cls-3" d="M894,754.12,1260.77,159c53.09-69.6,349-177.79,418.15-124.13h0c73.18,56.83,81.94,164.16,18.8,232L1075.8,935.64c-40.9,44.05-126.42,48.36-172.63,9.9h0C856.68,906.8,844.19,823.86,894,754.12Z"/><path class="cls-4" d="M14.92,619.09h0C61.56,748.23,203.76,815.53,333.2,769.76L1635,308.27c82.65-29.27,125.56-120.54,95.43-202.91l-.72-1.87a157.53,157.53,0,0,0-180.81-100l-1351,286.71C49.79,321.62-36.45,476.59,14.92,619.09Z"/></g></g></svg>