<svg xmlns="http://www.w3.org/2000/svg" viewBox="2894 107 184.082 35">
  <defs>
    <style>
      .cls-1 {
        fill: #b1b1b1;
      }
    </style>
  </defs>
  <path id="integrate-postgresql-logo" class="cls-1" d="M53.6,52.759c.221-.147.515-.515.221-.736a1.734,1.734,0,0,0-1.473-.221.337.337,0,0,0-.295.368,1.009,1.009,0,0,0,1.252.736A.383.383,0,0,0,53.6,52.759Zm10.234-1.031c-.295.221,0,.589.221.663a1.013,1.013,0,0,0,1.473-.81A1.751,1.751,0,0,0,63.835,51.728Zm7.142,10.529a6.672,6.672,0,0,1-3.608,0A36.712,36.712,0,0,0,71.935,51.8a16.943,16.943,0,0,0,.515-4.27,4.568,4.568,0,0,0-.663-2.356,9.3,9.3,0,0,0-5.007-3.313,13.705,13.705,0,0,0-7.51.295,1.621,1.621,0,0,1-.589-.074A8.67,8.67,0,0,0,52.2,43.113a15.788,15.788,0,0,0-7.142-1.031,6.475,6.475,0,0,0-4.639,2.577,9.845,9.845,0,0,0-1.252,6.627,51.351,51.351,0,0,0,2.062,8.835,19.2,19.2,0,0,0,2.356,5.154,3.8,3.8,0,0,0,2.282,1.693,2.624,2.624,0,0,0,2.209-1.1c.957-1.1,1.914-2.209,2.872-3.24a6.631,6.631,0,0,0,2.062.589,3.606,3.606,0,0,1-1.325,1.252,10.491,10.491,0,0,0-2.577.81.91.91,0,0,0-.147,1.252l.074.074a4.257,4.257,0,0,0,2.651.884,5.044,5.044,0,0,0,3.608-1.252,57.879,57.879,0,0,0,.221,6.185,5,5,0,0,0,1.546,3.24,3.77,3.77,0,0,0,3.166.736,6.454,6.454,0,0,0,3.019-1.252,5.31,5.31,0,0,0,1.473-3.092c.295-2.062.589-4.123.81-6.185a7.914,7.914,0,0,0,6.627-1.693,1.071,1.071,0,0,0,.368-1.4A1.182,1.182,0,0,0,70.977,62.257ZM67.37,43.04A8.163,8.163,0,0,1,70.9,45.617a3.113,3.113,0,0,1,.515,1.988,17.536,17.536,0,0,1-.736,4.786,33.487,33.487,0,0,1-3.534,8.173,4.47,4.47,0,0,1-.515.736v-.295a8.778,8.778,0,0,0,.589-1.473,13.148,13.148,0,0,0-.074-4.491c-.147-1.473.368-2.8.295-4.2A4.859,4.859,0,0,0,67,48.856a12.9,12.9,0,0,0-4.418-5.3c-.442-.295-1.031-.589-1.473-.884A10.684,10.684,0,0,1,67.37,43.04ZM66.118,54.967c.147,1.62.589,3.461-.147,5.007-1.031-2.062-2.43-4.05-2.872-6.406a2.2,2.2,0,0,1,.515-2.209,4.258,4.258,0,0,1,2.872-.368A24.2,24.2,0,0,0,66.118,54.967ZM47.343,64.834a1.6,1.6,0,0,1-1.546.81,2.793,2.793,0,0,1-1.62-1.546,24.242,24.242,0,0,1-2.43-5.89,51.781,51.781,0,0,1-1.62-7.289,9.238,9.238,0,0,1,.884-5.6,5,5,0,0,1,3.461-2.356,15.14,15.14,0,0,1,6.774.663A9.692,9.692,0,0,0,49.11,47.31a14.869,14.869,0,0,0-.736,5.669,18.653,18.653,0,0,1-.147,4.05,5.274,5.274,0,0,0,1.767,4.639C49.11,62.772,48.226,63.8,47.343,64.834Zm1.988-6.258A13.143,13.143,0,0,1,49.4,55.63c.074-1.1,0-2.209,0-3.387a6.09,6.09,0,0,1,3.534-1.1,1.5,1.5,0,0,1,1.4,1.1,9.945,9.945,0,0,1-.368,6.995,15.42,15.42,0,0,0-.957,2.577A3.845,3.845,0,0,1,49.331,58.575ZM55,64.76a4.271,4.271,0,0,1-5.154,1.031c.81-.368,1.767-.368,2.577-.81s1.1-1.325,1.767-1.767a1.1,1.1,0,0,1,1.031.957c.074.147,0,.368-.221.589Zm9.866-1.841a5.124,5.124,0,0,0-.368,2.356c-.221,2.209-.515,4.418-.884,6.553a3.337,3.337,0,0,1-1.62,2.651,5.209,5.209,0,0,1-3.313.663,2.986,2.986,0,0,1-2.062-2.209,14.509,14.509,0,0,1-.295-2.5,56.412,56.412,0,0,1-.074-6.111,2.25,2.25,0,0,0-1.1-1.988,2.954,2.954,0,0,0-1.1-.221c.295-1.473,1.252-2.8,1.546-4.27a12.006,12.006,0,0,0-.221-5.6,2.453,2.453,0,0,0-1.841-1.914,6.264,6.264,0,0,0-4.123.81,11.284,11.284,0,0,1,1.988-5.89,5.961,5.961,0,0,1,3.9-2.282,9.79,9.79,0,0,1,7.216,1.988,11.307,11.307,0,0,1,3.681,5.154,4.755,4.755,0,0,0-3.461.736,3.063,3.063,0,0,0-.81,3.019c.442,2.5,1.914,4.639,3.019,6.847a10.521,10.521,0,0,0,1.031,1.473,1.5,1.5,0,0,0-1.1.736Zm3.092,1.767a5.062,5.062,0,0,1-2.356-.147,1.873,1.873,0,0,1,.295-1.252.782.782,0,0,1,.957-.147c1.325.736,2.872.368,4.27.221A5.352,5.352,0,0,1,67.959,64.686ZM207.338,63.14a8.971,8.971,0,0,0-1.62-8.246,9.669,9.669,0,0,0-6.479-2.945,14.55,14.55,0,0,0-7.51,1.1,7.322,7.322,0,0,0-3.976,4.859,8.9,8.9,0,0,0,.81,6.847,8.516,8.516,0,0,0,5.89,3.829,19.579,19.579,0,0,0,6.553,0A11.535,11.535,0,0,1,203.288,68c1.031.589,1.914,1.325,2.872,1.914a9.482,9.482,0,0,0,1.252-1.178c-.884-.663-1.914-1.325-2.8-1.988a5.932,5.932,0,0,0,2.724-3.608Zm-3.092,1.914c-1.62,1.988-4.418,2.724-6.921,2.651a8.176,8.176,0,0,1-6.185-2.577c-1.767-1.914-1.988-4.86-1.252-7.289a6.928,6.928,0,0,1,5.08-4.344c2.8-.589,6.038-.442,8.32,1.473,2.945,2.282,3.24,7.142.957,10.087ZM132.6,59.091a5.573,5.573,0,0,0-.074-1.1h-2.872V54.526h-1.693v3.461h-2.135v1.1h2.135v7.363a1.965,1.965,0,0,0,.81,1.914,6.284,6.284,0,0,0,3.681.295v-1.1a4.262,4.262,0,0,1-2.356-.221c-.515-.295-.442-.957-.515-1.473V59.017c1.031.074,2.062.074,3.019.074Zm-9.94,3.9c-2.062-.442-4.123-.368-6.185-.884a1.506,1.506,0,0,1-1.325-1.473c0-1.1,1.178-1.62,2.135-1.767a8.307,8.307,0,0,1,4.639.368,2.46,2.46,0,0,1,1.252,1.988h1.767a3.208,3.208,0,0,0-1.325-2.577c-1.546-1.031-3.534-1.031-5.3-.957a8.284,8.284,0,0,0-3.755.884c-1.546,1.031-1.473,3.755.295,4.418,2.5.884,5.228.663,7.731,1.4a1.651,1.651,0,0,1,.884,2.135,1.338,1.338,0,0,1-.736.81,10.038,10.038,0,0,1-5.522.442,2.545,2.545,0,0,1-2.356-2.43h-1.841A3.711,3.711,0,0,0,114.345,68c1.4.957,3.166.957,4.786,1.031a8.88,8.88,0,0,0,4.933-.957,2.714,2.714,0,0,0,.957-3.608A3.382,3.382,0,0,0,122.665,62.993Zm-12.811-4.418a9.923,9.923,0,0,0-6.332-.81,5.841,5.841,0,0,0-4.27,2.872,6.25,6.25,0,0,0,.074,5.375,5.825,5.825,0,0,0,4.859,2.872c2.43.221,5.228-.074,6.921-1.988,1.988-2.356,1.62-6.7-1.252-8.32Zm-.295,7.878a5.4,5.4,0,0,1-3.608,1.4,5.578,5.578,0,0,1-4.123-1.178A4.791,4.791,0,0,1,100.8,61.52,4.247,4.247,0,0,1,104.4,58.8a7.041,7.041,0,0,1,4.565.736,3.767,3.767,0,0,1,1.693,3.019,5.315,5.315,0,0,1-1.1,3.9Zm37.4-8.541h-1.62c0,.589-.074,1.1-.074,1.693a6.3,6.3,0,0,0-2.43-1.693,9.958,9.958,0,0,0-5.3-.074,5.107,5.107,0,0,0-3.829,3.387,6.04,6.04,0,0,0,.884,5.228,5.849,5.849,0,0,0,3.976,1.914,8.111,8.111,0,0,0,6.7-1.767c0,1.325.221,2.8-.663,3.976a4.9,4.9,0,0,1-3.829,1.546,7.921,7.921,0,0,1-3.681-.589c-.736-.368-1.031-1.252-1.4-1.914h-1.62a3.753,3.753,0,0,0,1.693,2.724,10.293,10.293,0,0,0,4.712.81,7.586,7.586,0,0,0,5.154-1.473,4.919,4.919,0,0,0,1.325-3.829c0-3.313.147-6.627,0-9.94Zm-2.577,7.878a5.849,5.849,0,0,1-5.228,1.4,4.237,4.237,0,0,1-3.534-2.282,4.851,4.851,0,0,1,.295-4.27A4.412,4.412,0,0,1,139.01,58.8a6.553,6.553,0,0,1,4.712.736,4.593,4.593,0,0,1,.663,6.258Zm66.634,1.4V52.317l-1.914.074v16.2h14.063V67.263c-4.123-.074-8.173,0-12.149-.074Zm-43.22-7.8c-1.546-1.546-3.829-1.841-5.964-1.767a6.117,6.117,0,0,0-5.3,2.651,5.674,5.674,0,0,0,1.325,7.363,9.238,9.238,0,0,0,7.363,1.031,5.145,5.145,0,0,0,3.9-3.534h-1.841a3.983,3.983,0,0,1-2.8,2.5,6.577,6.577,0,0,1-5.817-1.1,4.127,4.127,0,0,1-1.252-2.945c3.976-.074,7.952,0,11.928,0A5.831,5.831,0,0,0,167.8,59.385Zm-10.308,3.166a4.523,4.523,0,0,1,2.062-3.166,6.03,6.03,0,0,1,7.216,1.1,3.7,3.7,0,0,1,.884,2.135c-3.461,0-6.847,0-10.161-.074ZM97.7,53.495a5.732,5.732,0,0,0-4.05-1.178c-3.019,0-6.111.074-9.13.074V68.662h1.62c0-2.282-.074-4.565,0-6.921h7.8c1.914-.074,4.123-.957,4.859-2.872A4.851,4.851,0,0,0,97.7,53.495Zm-.81,5.08a3.663,3.663,0,0,1-3.461,1.841c-2.43.074-4.786,0-7.216,0V53.642H93.14a4.161,4.161,0,0,1,3.313,1.1,3.963,3.963,0,0,1,.442,3.829Zm59.05-.957a8.335,8.335,0,0,0-3.829.442,4.2,4.2,0,0,0-1.62,1.767V57.986h-1.62c-.074,3.534-.074,7.068,0,10.676h1.62V63.14a4.158,4.158,0,0,1,1.546-3.461c1.178-.81,2.651-.663,3.976-.589A10.893,10.893,0,0,1,155.945,57.618Zm29.083,3.387c-2.282-1.1-4.933-1.252-7.363-1.767a8.739,8.739,0,0,1-3.534-1.178A2.6,2.6,0,0,1,174.2,54.3a3.088,3.088,0,0,1,1.031-.663,11.068,11.068,0,0,1,7.068.147,3.7,3.7,0,0,1,2.135,3.092h1.914a4.414,4.414,0,0,0-1.473-3.461c-1.693-1.325-3.976-1.473-6.038-1.546a11.463,11.463,0,0,0-5.669,1.031c-2.5,1.4-2.43,5.817.368,6.847,2.945,1.1,6.111,1.1,9.13,1.914a2.9,2.9,0,0,1,1.841,1.252,3.019,3.019,0,0,1-1.62,4.2,11.856,11.856,0,0,1-7.657-.147,4.253,4.253,0,0,1-2.43-3.755,17.943,17.943,0,0,0-1.988.074,5.275,5.275,0,0,0,1.62,3.976c1.841,1.473,4.344,1.693,6.7,1.767,2.135,0,4.418-.147,6.185-1.4C187.384,66.159,187.458,62.183,185.028,61.005Z" transform="translate(2854.914 65.525)"/>
</svg>
