<svg xmlns="http://www.w3.org/2000/svg" viewBox="2931 197 110 14.313">
  <defs>
    <style>
      .cls-1 {
        fill: #b1b1b1;
      }
    </style>
  </defs>
  <g id="logo-oracle" transform="translate(2777 80.927)">
    <path id="Path_1269" data-name="Path 1269" class="cls-1" d="M780.563-303.833c-.541.178-.851.481-1.425,1.392-.3.468-1.049,1.649-1.675,2.631-3.39,5.3-4.26,6.668-5.151,8.066-.541.844-1.055,1.642-1.148,1.781a1.2,1.2,0,0,0-.165.29,11.526,11.526,0,0,0,1.6.04l1.6-.02.468-.739c.251-.409,1.035-1.655,1.741-2.77s2.071-3.284,3.034-4.814,1.768-2.79,1.787-2.79.35.514.732,1.141c.89,1.444,2.843,4.584,2.994,4.814l.112.178-3.627.013-3.634.02.785,1.22.785,1.22,3.706.033,3.713.033.725,1.233.732,1.233,1.6.007c.877,0,1.6-.013,1.6-.033s-.481-.785-1.062-1.7-1.444-2.256-1.913-2.981c-4.557-7.149-5.547-8.679-5.771-8.923A2.083,2.083,0,0,0,780.563-303.833Z" transform="translate(-576.308 420)"/>
    <path id="Path_1272" data-name="Path 1272" class="cls-1" d="M159.936-301.971A7.075,7.075,0,0,0,154-294.98a7.083,7.083,0,0,0,5.329,6.879l.64.178h5.144c4.01,0,5.23-.02,5.54-.086a7.12,7.12,0,0,0,5.6-5.619,8.85,8.85,0,0,0,0-2.7,7.08,7.08,0,0,0-5.837-5.639C169.564-302.11,160.813-302.11,159.936-301.971Zm10.579,2.625a4.673,4.673,0,0,1,3.047,3.218,5.637,5.637,0,0,1,0,2.3,4.668,4.668,0,0,1-3.04,3.218l-.528.178-4.551.02c-3.146.013-4.683,0-4.979-.053a4.6,4.6,0,0,1-3.753-5.025,4.3,4.3,0,0,1,1.352-2.73,3.317,3.317,0,0,1,1.154-.838c1.035-.508.93-.5,6.16-.488l4.617.013Z" transform="translate(0 418.27)"/>
    <path id="Path_1273" data-name="Path 1273" class="cls-1" d="M515-295v7.09h2.77v-11.68l4.8.02,4.795.02.369.185a2.7,2.7,0,0,1,1.134,1.154,1.884,1.884,0,0,1,.145.9,1.715,1.715,0,0,1-.218,1.035,2.236,2.236,0,0,1-1.675,1.24c-.191.04-2,.066-4.168.066l-3.832.007.2.171c.112.092,1.886,1.642,3.944,3.443s3.805,3.311,3.865,3.357a9.191,9.191,0,0,0,2.077.066l1.965-.02-.448-.363c-.244-.2-.943-.778-1.543-1.286s-1.609-1.352-2.229-1.873-1.134-.983-1.134-1.009a4.176,4.176,0,0,1,.91-.053,5.292,5.292,0,0,0,1.424-.132,4.872,4.872,0,0,0,3.449-3.456,5.723,5.723,0,0,0-.04-2.48,4.786,4.786,0,0,0-2.546-3.007c-1.009-.481-.547-.448-7.631-.475L515-302.1Z" transform="translate(-337.192 418.293)"/>
    <path id="Path_1274" data-name="Path 1274" class="cls-1" d="M1066.412-301.9a7.132,7.132,0,0,0-5.289,4.01,7.049,7.049,0,0,0,.138,6.246,7.112,7.112,0,0,0,5.329,3.753c.323.046,2.137.073,4.94.073l4.432-.007.758-1.187c.416-.653.765-1.214.778-1.246s-2.216-.073-5.309-.079l-5.329-.02-.528-.178a4.463,4.463,0,0,1-1.84-1.148,4.467,4.467,0,0,1-1.141-1.84,3.451,3.451,0,0,1-.172-1.385,3.451,3.451,0,0,1,.172-1.385,4.678,4.678,0,0,1,2.994-2.988l.515-.178,4.445-.033,4.445-.033.633-.989c.349-.547.706-1.1.791-1.24l.152-.244-5.2.007C1068.18-301.987,1066.8-301.967,1066.412-301.9Z" transform="translate(-846.679 418.2)"/>
    <path id="Path_1275" data-name="Path 1275" class="cls-1" d="M1338.013-295.425l.02,6.582.165.3a1.729,1.729,0,0,0,.462.495l.3.2h12.907l.785-1.22.785-1.22-6.331-.02-6.331-.013V-302H1338Z" transform="translate(-1105.914 418.2)"/>
    <path id="Path_1276" data-name="Path 1276" class="cls-1" d="M1569.464-301.877c-.053.013-.323.059-.594.1a7.016,7.016,0,0,0-3.759,1.992,7.077,7.077,0,0,0,.93,10.737,7.324,7.324,0,0,0,2.467,1.134c.521.138.613.145,5.283.165l4.755.026.8-1.24.8-1.24-5.355-.033c-5.995-.04-5.553,0-6.589-.541a4.791,4.791,0,0,1-2.13-2.361l-.158-.4h5.8c5.441,0,5.8-.007,5.9-.119.053-.059.422-.62.818-1.233l.719-1.121-6.6-.02-6.6-.013.04-.2a4.77,4.77,0,0,1,.679-1.326,4.836,4.836,0,0,1,2.381-1.655c.429-.138.567-.138,4.861-.165l4.419-.02.778-1.207c.422-.666.772-1.227.772-1.253S1569.661-301.916,1569.464-301.877Z" transform="translate(-1316.141 418.109)"/>
  </g>
</svg>
