<svg xmlns="http://www.w3.org/2000/svg" viewBox="2694 193 110 21.959">
  <defs>
    <style>
      .cls-1 {
        fill: #b1b1b1;
      }
    </style>
  </defs>
  <g id="logo-timeweb" transform="translate(2693.857 193)">
    <path id="Path_1248" data-name="Path 1248" class="cls-1" d="M113.628-178.648a1.4,1.4,0,0,0-1.018.8,4.667,4.667,0,0,0-.393,2.22c.11.589.6.8,1.852.8,1.472,0,2.061-.368,2.454-1.558.307-.981.307-1.693-.025-2.024-.245-.233-.429-.27-1.411-.307A7.018,7.018,0,0,0,113.628-178.648Z" transform="translate(-98.304 178.759)"/>
    <path id="Path_1249" data-name="Path 1249" class="cls-1" d="M769.088-168.609c-2.073,9.593-2.233,10.4-2.036,10.538a17.574,17.574,0,0,0,4.036.92,21.245,21.245,0,0,0,5.41-.184c3.239-.871,5.005-3.19,6.011-7.937.945-4.441.258-6.784-2.2-7.545a10.341,10.341,0,0,0-5.974.38c-.4.159-.687.221-.662.147.074-.2,1.411-6.514,1.411-6.624A10.209,10.209,0,0,0,773.21-179h-1.877Zm8.919-.908a2.068,2.068,0,0,1,.65.613c.221.343.245.552.2,1.742a12.535,12.535,0,0,1-1.644,5.852,2.526,2.526,0,0,1-1.006.8c-.65.319-.773.343-2.282.331-1.951-.025-2.711-.209-2.662-.675.123-1.092,1.668-7.814,1.84-8.011a3.9,3.9,0,0,1,1.582-.81A8.388,8.388,0,0,1,778.007-169.517Z" transform="translate(-672.773 179)"/>
    <path id="Path_1250" data-name="Path 1250" class="cls-1" d="M5.829-159.1c-1.006.38-1.865.7-1.889.712s-.159.6-.307,1.3l-.258,1.264-1.3.037-1.3.037-.27,1.313C.358-153.714.2-153,.162-152.855c-.061.282-.049.282,1.178.282,1.092,0,1.239.025,1.239.209,0,.11-.368,1.9-.81,3.962C.8-143.986.7-142.771,1.217-141.741c.528,1.08,1.717,1.558,3.877,1.558a14.089,14.089,0,0,0,3.729-.491c.159-.074.307-.552.54-1.619.172-.822.294-1.521.282-1.533a1.37,1.37,0,0,0-.442.086,10.484,10.484,0,0,1-2.993.294,1.274,1.274,0,0,1-1.3-1.423c.012-.356.356-2.22.773-4.146l.773-3.5,2.564-.061,2.564-.061.27-1.239c.135-.675.294-1.386.343-1.558l.074-.331H9.755c-2.343,0-2.515-.012-2.515-.221,0-.123.172-.981.368-1.9s.368-1.742.368-1.8C7.976-159.884,7.755-159.823,5.829-159.1Z" transform="translate(0 162.142)"/>
    <path id="Path_1251" data-name="Path 1251" class="cls-1" d="M138.851-130.7c-2.343.356-4.748,1.006-4.833,1.288-.123.368-3.018,13.936-3.018,14.1,0,.123.429.147,1.865.123l1.877-.037,1.264-5.888c.7-3.239,1.313-5.925,1.362-5.974.319-.343,3.41-.466,4.122-.172,1.153.491,1.141,1.349-.11,7.25-.527,2.429-.969,4.514-1.006,4.625-.061.209.086.221,1.84.221,1.705,0,1.9-.025,1.963-.221.025-.11.5-2.331,1.055-4.932a42.469,42.469,0,0,0,1.018-5.741l.025-1.006.429-.135a12.837,12.837,0,0,1,1.987-.2,4.877,4.877,0,0,1,2.122.135c1.239.478,1.227,1.337-.11,7.545-.515,2.38-.932,4.38-.932,4.441a8.093,8.093,0,0,0,1.877.11h1.877l1.006-4.748c1.141-5.385,1.313-6.428,1.2-7.446a3.119,3.119,0,0,0-.994-2.343c-.8-.8-1.595-1.067-3.435-1.141a16.913,16.913,0,0,0-5.054.662l-1.129.319-.331-.258a3.669,3.669,0,0,0-.957-.454A16.818,16.818,0,0,0,138.851-130.7Z" transform="translate(-114.805 136.761)"/>
    <path id="Path_1252" data-name="Path 1252" class="cls-1" d="M346.054-130.751c-3.717.687-5.852,3.263-6.809,8.232A15.671,15.671,0,0,0,339-120.1a4.685,4.685,0,0,0,1.472,3.926c1.129,1.018,2.638,1.386,5.263,1.276a21.735,21.735,0,0,0,4.625-.7c.294-.11.294-.147.294-1.57v-1.46l-1.19.245a15.028,15.028,0,0,1-3.1.258c-2.1.012-2.6-.123-3.116-.81a4.218,4.218,0,0,1-.27-2.368l.086-.552,4.993-.025,4.993-.037.282-1.288a23.726,23.726,0,0,0,.356-2.772,5.491,5.491,0,0,0-.184-2.331,3.21,3.21,0,0,0-1.619-2.012A11.628,11.628,0,0,0,346.054-130.751Zm3.472,3.079a2.9,2.9,0,0,1,.478.4,2.964,2.964,0,0,1,.221,1.8l-.074.662h-3.19a21.891,21.891,0,0,1-3.177-.11,6.722,6.722,0,0,1,.822-1.767,3.241,3.241,0,0,1,1.889-1.19A6.727,6.727,0,0,1,349.526-127.672Z" transform="translate(-297.288 136.823)"/>
    <path id="Path_1253" data-name="Path 1253" class="cls-1" d="M657.048-130.609a7.17,7.17,0,0,0-3.938,2.012c-1.754,1.754-2.9,4.858-3.018,8.195a5.933,5.933,0,0,0,.184,2.454,4.052,4.052,0,0,0,2.969,2.871,16.432,16.432,0,0,0,7.544-.233l.859-.221.037-1.509c.025-1.313.012-1.509-.159-1.448a14.7,14.7,0,0,1-4.171.515c-1.607,0-1.9-.037-2.331-.245-.773-.393-1.043-.908-1.043-2.012a8.081,8.081,0,0,1,.074-1.214l.074-.27h9.9l.123-.466a25.791,25.791,0,0,0,.626-4.146c0-2.257-.8-3.545-2.539-4.11A14.632,14.632,0,0,0,657.048-130.609Zm2.92,2.9c1.043.221,1.448.957,1.3,2.343l-.086.712h-3.165c-2.466,0-3.177-.037-3.177-.159a7.034,7.034,0,0,1,.932-1.9C656.484-127.641,658.312-128.07,659.968-127.714Z" transform="translate(-570.191 136.682)"/>
    <path id="Path_1254" data-name="Path 1254" class="cls-1" d="M82.481-119.676c-.859,4.036-1.595,7.459-1.632,7.618l-.049.27h1.914a8.379,8.379,0,0,0,1.914-.11c0-.049.724-3.435,1.595-7.508s1.595-7.446,1.595-7.5a8.549,8.549,0,0,0-1.877-.1H84.063Z" transform="translate(-70.763 133.379)"/>
    <path id="Path_1255" data-name="Path 1255" class="cls-1" d="M464-126.877c0,.074.159,1.276.368,2.674.393,2.772.883,7.3,1.116,10.427l.147,1.987h2.294c1.693,0,2.331-.037,2.429-.159.258-.307,2.76-5.152,3.864-7.471l1.153-2.4.086.687c.037.38.11,2.65.159,5.017l.074,4.33h4.7l1.852-3.091c2.122-3.558,3.778-6.526,5.5-9.826l1.19-2.294-1.951.012h-1.938L483.6-124.08c-.8,1.595-2.122,4.11-2.944,5.582l-1.509,2.674-.086-1.816c-.159-3.558-.356-6.624-.491-7.986L478.439-127h-3.7l-1.742,3.533c-1.975,4-3.827,7.508-3.962,7.508a10.542,10.542,0,0,1-.159-1.938c-.11-2.539-.675-8.146-.9-8.894-.061-.184-.27-.209-2.024-.209A6.512,6.512,0,0,0,464-126.877Z" transform="translate(-406.954 133.379)"/>
  </g>
</svg>
