<svg xmlns="http://www.w3.org/2000/svg" viewBox="2694 265.2 110 23.409">
  <defs>
    <style>
      .cls-1 {
        fill: #b1b1b1;
      }
    </style>
  </defs>
  <g id="Microsoft_logo_2012_svg" transform="translate(2694 265.2)">
    <path id="Path_1256" data-name="Path 1256" class="cls-1" d="M0-420.425v5.575H11.15V-426H0Z" transform="translate(0 426)"/>
    <path id="Path_1257" data-name="Path 1257" class="cls-1" d="M1764.416-359.565a3.188,3.188,0,0,0-2.341,1.77,4.1,4.1,0,0,0-.411,2.2v.932H1760v1.941h1.664v8.154l1.182-.011,1.176-.017.017-4.066.011-4.061h3.545l.017,3.007c.022,2.934.028,3.023.15,3.428a2.516,2.516,0,0,0,.71,1.226,2.934,2.934,0,0,0,2.319.693,4.965,4.965,0,0,0,1.431-.25l.15-.061v-1.936l-.288.144a2.023,2.023,0,0,1-1.265.128,1.116,1.116,0,0,1-.743-.777,15.545,15.545,0,0,1-.089-2.951v-2.652h2.385v-1.941h-2.385l-.011-1.487-.017-1.487-.8.239-1.176.355-.377.111v2.269h-3.561l.022-.96a2.725,2.725,0,0,1,.15-1.243,1.42,1.42,0,0,1,.76-.743,2.569,2.569,0,0,1,1.381.055c.177.061.338.116.344.116s.017-.46.017-1.021v-1.021l-.288-.067A6.426,6.426,0,0,0,1764.416-359.565Z" transform="translate(-1662.37 363.315)"/>
    <path id="Path_1258" data-name="Path 1258" class="cls-1" d="M863.71-346.568a1.331,1.331,0,0,0-1.01,1.342,1.209,1.209,0,0,0,.46.982,1.54,1.54,0,0,0,1.958-.055,1.377,1.377,0,0,0,.305-1.459A1.459,1.459,0,0,0,863.71-346.568Z" transform="translate(-814.845 351.022)"/>
    <path id="Path_1259" data-name="Path 1259" class="cls-1" d="M550.181-340.933c-.017.039-.022,3.206-.017,7.034l.017,6.962,1.126.017,1.126.011-.017-5.763-.017-5.763.128.483c.144.549.233.771,2.64,6.607l1.8,4.355.8.017c.61.011.81-.006.832-.055s.976-2.419,2.136-5.286c1.37-3.395,2.141-5.364,2.2-5.647a1.272,1.272,0,0,1,.122-.41c.011.017-.006.71-.039,1.548-.039.9-.055,3.179-.044,5.675l.017,4.16,1.209.017,1.2.011V-341l-1.67.011-1.67.017-1.77,4.327c-.976,2.38-1.925,4.748-2.108,5.264s-.349.965-.366,1-.094-.128-.161-.355-1.01-2.629-2.086-5.336L553.62-341h-1.708A6.905,6.905,0,0,0,550.181-340.933Z" transform="translate(-519.644 345.715)"/>
    <path id="Path_1260" data-name="Path 1260" class="cls-1" d="M943.464-273.714a4.95,4.95,0,0,0-3.95,3.811,9.1,9.1,0,0,0-.022,2.979,4.7,4.7,0,0,0,3.312,3.461,6.392,6.392,0,0,0,4.055-.283l.377-.172v-2.191l-.316.211a3.383,3.383,0,0,1-4.188-.133,3.258,3.258,0,0,1-.876-2.474,3.31,3.31,0,0,1,.9-2.507,3.056,3.056,0,0,1,1.476-.771,3.915,3.915,0,0,1,2.607.51,4.3,4.3,0,0,0,.377.216c.011,0,.022-.51.022-1.137v-1.137l-.205-.089c-.117-.05-.449-.15-.738-.227A7.359,7.359,0,0,0,943.464-273.714Z" transform="translate(-887.271 282.262)"/>
    <path id="Path_1261" data-name="Path 1261" class="cls-1" d="M1226.323-273.832a4.633,4.633,0,0,0-4.016,3.445,6.837,6.837,0,0,0-.211,2.141,4.688,4.688,0,0,0,1.376,3.489,4.457,4.457,0,0,0,2.535,1.3,8.51,8.51,0,0,0,2.762-.089,4.881,4.881,0,0,0,3.617-4.848,5.968,5.968,0,0,0-.81-3.484,5.173,5.173,0,0,0-1.492-1.42A6.313,6.313,0,0,0,1226.323-273.832Zm1.6,1.941a2.5,2.5,0,0,1,1.908,1.975,7.332,7.332,0,0,1,0,2.463,2.867,2.867,0,0,1-.788,1.514,2.849,2.849,0,0,1-3.783-.255,3.5,3.5,0,0,1-.721-2.174c-.094-1.892.682-3.223,2.052-3.522A3,3,0,0,1,1227.927-271.89Z" transform="translate(-1154.299 282.347)"/>
    <path id="Path_1262" data-name="Path 1262" class="cls-1" d="M1432.727-273.725a3.311,3.311,0,0,0-2.541,2.125,2.481,2.481,0,0,0-.094,1,2.342,2.342,0,0,0,.494,1.548c.394.533.865.832,2.407,1.52a6.385,6.385,0,0,1,1,.549.788.788,0,0,1,.355.544.635.635,0,0,1-.028.577c-.194.466-.6.643-1.464.649a4.56,4.56,0,0,1-2.358-.71l-.333-.2-.017,1.121c-.011.854.006,1.126.055,1.165a7.724,7.724,0,0,0,1.625.444,4.728,4.728,0,0,0,4.1-.954,2.7,2.7,0,0,0,.9-2.274,2.159,2.159,0,0,0-1.01-1.9,10,10,0,0,0-1.98-1.043c-1.032-.444-1.331-.7-1.409-1.2-.083-.571.305-1,1.021-1.137a4.42,4.42,0,0,1,2.469.51,3.128,3.128,0,0,0,.288.166,10.15,10.15,0,0,0,.028-1.082c0-1.254.078-1.115-.754-1.337A7.232,7.232,0,0,0,1432.727-273.725Z" transform="translate(-1350.757 282.262)"/>
    <path id="Path_1263" data-name="Path 1263" class="cls-1" d="M1573.47-273.763a4.689,4.689,0,0,0-4.1,3.8,9.383,9.383,0,0,0-.061,2.618,4.646,4.646,0,0,0,1.365,2.713,3.158,3.158,0,0,0,1.06.766,4.441,4.441,0,0,0,2.574.527,4.708,4.708,0,0,0,1.581-.128,4.74,4.74,0,0,0,2.33-1.376,5.136,5.136,0,0,0,1.309-3.461c.139-2.624-1.01-4.582-3.084-5.264A7.136,7.136,0,0,0,1573.47-273.763Zm1.6,1.941c1.276.266,2.041,1.476,2.036,3.212-.005,1.692-.61,2.835-1.686,3.184a2.711,2.711,0,0,1-3.345-1.182,3.528,3.528,0,0,1-.377-1.942,3.664,3.664,0,0,1,.372-1.969A2.609,2.609,0,0,1,1575.073-271.821Z" transform="translate(-1482.197 282.278)"/>
    <path id="Path_1264" data-name="Path 1264" class="cls-1" d="M1117.3-272.538a2.673,2.673,0,0,0-1.708,1.42l-.205.4v-1.731H1113v10.1l1.182-.011,1.176-.017.028-3.051c.028-3.018.028-3.056.155-3.411a2.5,2.5,0,0,1,1.159-1.453,1.545,1.545,0,0,1,.849-.122,1.951,1.951,0,0,1,.932.144l.344.144v-2.319l-.15-.061A3.658,3.658,0,0,0,1117.3-272.538Z" transform="translate(-1051.26 281.097)"/>
    <path id="Path_1265" data-name="Path 1265" class="cls-1" d="M866.011-264.969l.017,5.037,1.182.017,1.176.011V-270H866Z" transform="translate(-817.962 278.654)"/>
    <path id="Path_1266" data-name="Path 1266" class="cls-1" d="M0-420.425v5.575H11.15V-426H0Z" transform="translate(0 438.259)"/>
    <path id="Path_1267" data-name="Path 1267" class="cls-1" d="M0-420.425v5.575H11.15V-426H0Z" transform="translate(12.259 438.259)"/>
    <path id="Path_1268" data-name="Path 1268" class="cls-1" d="M0-420.425v5.575H11.15V-426H0Z" transform="translate(12.259 426)"/>
  </g>
</svg>
