<svg xmlns="http://www.w3.org/2000/svg" xmlns:xlink="http://www.w3.org/1999/xlink" viewBox="0 0 2000 2000"><defs><style>.cls-1{fill:url(#Безымянный_градиент_20);}.cls-2{fill:url(#Безымянный_градиент_21);}.cls-3{fill:url(#Безымянный_градиент_22);}.cls-4{fill:url(#Безымянный_градиент_23);}.cls-5{fill:#fff;}</style><linearGradient id="Безымянный_градиент_20" x1="5156.52" y1="-4118.86" x2="5189.02" y2="-4118.86" gradientTransform="matrix(28.57, 0, 0, -28.57, -147306.35, -116535.89)" gradientUnits="userSpaceOnUse"><stop offset="0.26" stop-color="#f97a12"/><stop offset="0.46" stop-color="#b07b58"/><stop offset="0.72" stop-color="#577bae"/><stop offset="0.91" stop-color="#1e7ce5"/><stop offset="1" stop-color="#087cfa"/></linearGradient><linearGradient id="Безымянный_градиент_21" x1="5181.48" y1="-4103.66" x2="5235.13" y2="-4133.35" gradientTransform="matrix(28.57, 0, 0, -28.57, -147306.35, -116535.89)" gradientUnits="userSpaceOnUse"><stop offset="0" stop-color="#f97a12"/><stop offset="0.07" stop-color="#cb7a3e"/><stop offset="0.15" stop-color="#9e7b6a"/><stop offset="0.24" stop-color="#757b91"/><stop offset="0.33" stop-color="#537bb1"/><stop offset="0.43" stop-color="#387ccc"/><stop offset="0.54" stop-color="#237ce0"/><stop offset="0.66" stop-color="#147cef"/><stop offset="0.79" stop-color="#0b7cf7"/><stop offset="1" stop-color="#087cfa"/></linearGradient><linearGradient id="Безымянный_градиент_22" x1="5218.96" y1="-4121.67" x2="5204.02" y2="-4077.03" gradientTransform="matrix(28.57, 0, 0, -28.57, -147306.35, -116535.89)" gradientUnits="userSpaceOnUse"><stop offset="0" stop-color="#fe315d"/><stop offset="0.08" stop-color="#cb417e"/><stop offset="0.16" stop-color="#9e4e9b"/><stop offset="0.25" stop-color="#755bb4"/><stop offset="0.34" stop-color="#5365ca"/><stop offset="0.44" stop-color="#386ddb"/><stop offset="0.54" stop-color="#2374e9"/><stop offset="0.66" stop-color="#1478f3"/><stop offset="0.79" stop-color="#0b7bf8"/><stop offset="1" stop-color="#087cfa"/></linearGradient><linearGradient id="Безымянный_градиент_23" x1="5166.41" y1="-4095.25" x2="5211.22" y2="-4169.35" gradientTransform="matrix(28.57, 0, 0, -28.57, -147306.35, -116535.89)" gradientUnits="userSpaceOnUse"><stop offset="0" stop-color="#fe315d"/><stop offset="0.04" stop-color="#f63462"/><stop offset="0.1" stop-color="#df3a71"/><stop offset="0.17" stop-color="#c24383"/><stop offset="0.29" stop-color="#ad4a91"/><stop offset="0.55" stop-color="#755bb4"/><stop offset="0.92" stop-color="#1d76ed"/><stop offset="1" stop-color="#087cfa"/></linearGradient></defs><title>Ресурс 4</title><g id="Слой_2" data-name="Слой 2"><g id="youtrack"><path class="cls-1" d="M505.71,1560,22.86,1177.14l240-445.71L951.43,1000Z"/><path class="cls-2" d="M2000,534.29l-37.14,1157.14L1194.29,2000,731.43,1702.86,1408.57,1000,1111.43,351.43l265.71-320Z"/><path class="cls-3" d="M2000,534.29l-608.57,720-280-902.86,265.71-320Z"/><path class="cls-4" d="M962.86,1660,160,1951.43,288.57,1500,457.14,945.71,0,791.43,288.57,0,917.14,77.14l617.14,705.71Z"/><path d="M391.43,385.71H1625.71V1620H391.43Z"/><path class="cls-5" d="M547.91,798.59c0-142.32,106.56-258.9,258.18-258.9,92.26,0,148,32.18,196,78l-56.5,65.08c-40.05-37.19-83-62.22-140.18-62.22-95.83,0-165.21,78.67-165.21,178.08,0,98,69.37,178.08,165.21,178.08,61.51,0,100.84-25,143.75-65.08l56.5,57.21c-52.21,54.35-109.42,88.68-203.11,88.68C656.62,1057.49,547.91,943.78,547.91,798.59Z"/><path class="cls-5" d="M1064.26,976,1117.18,913c47.92,41.48,95.83,65.08,158.05,65.08,54.35,0,88.68-25,88.68-64.37,0-35.76-20-55.07-113-77.24-106.56-25-166.64-56.5-166.64-150.19,0-85.82,71.52-145.18,170.93-145.18,72.95,0,130.88,22.17,181.66,62.94l-47.2,66.51c-45.06-33.61-90.11-51.49-135.88-51.49-51.49,0-81.53,26.46-81.53,60.79,0,38.62,22.89,55.78,118.72,78.67,105.85,25.75,160.92,63.65,160.92,148,0,93.69-73.66,149.47-178.79,149.47C1196.57,1056.06,1124.33,1029.6,1064.26,976Z"/></g></g></svg>