<svg xmlns="http://www.w3.org/2000/svg" xmlns:xlink="http://www.w3.org/1999/xlink" viewBox="0 0 2000 2000"><defs><style>.cls-1{fill:url(#Безымянный_градиент_32);}.cls-2{fill:url(#Безымянный_градиент_33);}.cls-3{fill:url(#Безымянный_градиент_34);}.cls-4{fill:url(#Безымянный_градиент_35);}.cls-5{fill:#fff;}</style><linearGradient id="Безымянный_градиент_32" x1="2510.72" y1="-2888.58" x2="2562.56" y2="-2833.43" gradientTransform="matrix(28.57, 0, 0, -28.57, -71080, -80366.09)" gradientUnits="userSpaceOnUse"><stop offset="0.02" stop-color="#b35ba3"/><stop offset="0.4" stop-color="#c41e57"/><stop offset="0.47" stop-color="#c41e57"/><stop offset="0.65" stop-color="#eb8523"/><stop offset="0.95" stop-color="#febd11"/></linearGradient><linearGradient id="Безымянный_градиент_33" x1="2505.51" y1="-2886.1" x2="2557.35" y2="-2830.96" gradientTransform="matrix(28.57, 0, 0, -28.57, -71080, -80366.09)" gradientUnits="userSpaceOnUse"><stop offset="0.02" stop-color="#b35ba3"/><stop offset="0.4" stop-color="#c41e57"/><stop offset="0.47" stop-color="#c41e57"/><stop offset="0.7" stop-color="#eb8523"/></linearGradient><linearGradient id="Безымянный_градиент_34" x1="2489.63" y1="-2866.24" x2="2536.63" y2="-2822.04" gradientTransform="matrix(28.57, 0, 0, -28.57, -71080, -80366.09)" gradientUnits="userSpaceOnUse"><stop offset="0.02" stop-color="#b35ba3"/><stop offset="0.66" stop-color="#c41e57"/></linearGradient><linearGradient id="Безымянный_градиент_35" x1="2537.66" y1="-2801.25" x2="2536.62" y2="-2836.85" gradientTransform="matrix(28.57, 0, 0, -28.57, -71080, -80366.09)" gradientUnits="userSpaceOnUse"><stop offset="0.5" stop-color="#c41e57"/><stop offset="0.67" stop-color="#d13f48"/><stop offset="0.8" stop-color="#d94f39"/><stop offset="0.87" stop-color="#dd5433"/></linearGradient></defs><title>Ресурс 8</title><g id="Слой_2" data-name="Слой 2"><g id="youtrack"><path class="cls-1" d="M1422.86,434.29l-394.29,614.29,640,951.43L2000,660Z"/><path class="cls-2" d="M1460,448.57,1400,0,537.14,960l251.43,248.57L594.29,2000H1668.57Z"/><path class="cls-3" d="M1400,0H331.43L0,1345.71H1588.57Z"/><path class="cls-4" d="M1580,1345.71,1460,448.57,1400,0,1191.43,657.14Z"/><path d="M1617,1617.59l-1234.29,3.18L379.51,386.49l1234.29-3.18Z"/><path class="cls-5" d="M492.12,806.83c0-142.32,106.56-258.9,258.18-258.9,92.26,0,148,32.18,196,78L889.76,691c-40-37.19-83-62.22-140.18-62.22-95.83,0-165.21,78.67-165.21,178.08,0,98,69.37,178.08,165.21,178.08,61.51,0,100.84-25,143.75-65.08L949.83,977c-52.21,54.35-109.42,88.68-203.11,88.68C600.83,1065.73,492.12,952,492.12,806.83Z"/><path class="cls-5" d="M1042.08,556.52h223.14c117.29,0,185.95,62.94,185.95,159.49,0,82.25-49.35,131.59-119.43,151.62l135.17,189.52H1363.2l-124.44-174.5H1130v174.5h-88Zm216.7,248.17c62.94,0,103-32.9,103-85.11,0-53.64-38.62-83-103.7-83H1130V804.69Z"/></g></g></svg>