<svg xmlns="http://www.w3.org/2000/svg" xmlns:xlink="http://www.w3.org/1999/xlink" viewBox="0 0 2000 2000"><defs><style>.cls-1cl{fill:url(#Безымянный_градиент_18);}.cls-2cl{fill:url(#Безымянный_градиент_19);}.cls-3cl{fill:#fff;}</style><linearGradient id="Безымянный_градиент_18" x1="5092.38" y1="-1448.94" x2="5160.75" y2="-1431.3" gradientTransform="matrix(28.57, 0, 0, -28.57, -145534.65, -40148.94)" gradientUnits="userSpaceOnUse"><stop offset="0.12" stop-color="#7866ff"/><stop offset="0.54" stop-color="#fe2eb6"/><stop offset="0.85" stop-color="#fd0486"/></linearGradient><linearGradient id="Безымянный_градиент_19" x1="5139.62" y1="-1444.12" x2="5161.36" y2="-1414.31" gradientTransform="matrix(28.57, 0, 0, -28.57, -145534.65, -40148.94)" gradientUnits="userSpaceOnUse"><stop offset="0.12" stop-color="#ff0080"/><stop offset="0.26" stop-color="#fe0385"/><stop offset="0.41" stop-color="#fa0c92"/><stop offset="0.57" stop-color="#f41ba9"/><stop offset="0.74" stop-color="#eb2fc8"/><stop offset="0.87" stop-color="#e343e6"/></linearGradient></defs><title>Ресурс 7</title><g id="Слой_2" data-name="Слой 2"><g id="youtrack"><path class="cls-1cl" d="M1922.86,457.14,1248.57,0,0,888.57,317.14,2000l1365.71-277.14Z"/><path class="cls-2cl" d="M1922.86,457.14,1248.57,0,1085.71,448.57v917.14H2000Z"/><path d="M382.86,382.86H1617.14V1617.14H382.86Z"/><path class="cls-3cl" d="M501.31,806.83c0-142.32,106.56-258.9,258.18-258.9,92.26,0,148,32.18,196,78L899,691c-40.05-37.19-83-62.22-140.18-62.22-95.83,0-165.21,78.67-165.21,178.08,0,98,69.37,178.08,165.21,178.08,61.51,0,100.84-25,143.75-65.08L959,977c-52.21,54.35-109.42,88.68-203.11,88.68C610,1065.73,501.31,952,501.31,806.83Z"/><path class="cls-3cl" d="M1051.27,556.52h88V977h263.19v80.1H1051.27Z"/></g></g></svg>